<svg width="17" height="13" viewBox="0 0 17 13" fill="none" xmlns="http://www.w3.org/2000/svg">
<path d="M12.2427 8.35614L11.8302 8.78042H12.422H12.9366C13.0887 8.78042 13.2242 8.82857 13.3167 8.90296L16.4634 11.4333C16.4636 11.4335 16.4638 11.4336 16.464 11.4338C16.5576 11.5101 16.5911 11.597 16.5909 11.6703C16.5907 11.7437 16.5567 11.8309 16.4613 11.9077L15.5678 12.6262L15.5668 12.627C15.3655 12.7906 15.0166 12.7917 14.8108 12.6262L11.663 10.095C11.5723 10.022 11.5354 9.93563 11.5354 9.85822V9.44439V8.9919L11.1523 9.23275C10.0794 9.9073 8.72408 10.3115 7.24411 10.3115C3.70088 10.3115 0.927063 8.01163 0.927063 5.28073C0.927063 2.54983 3.70088 0.25 7.24411 0.25C10.7873 0.25 13.5612 2.54983 13.5612 5.28073C13.5612 6.43311 13.0753 7.4999 12.2427 8.35614ZM2.95285 5.28073C2.95285 7.26452 4.92765 8.78042 7.24411 8.78042C9.564 8.78042 11.5354 7.26176 11.5354 5.28073C11.5354 3.29695 9.56057 1.78105 7.24411 1.78105C4.92421 1.78105 2.95285 3.2997 2.95285 5.28073Z" fill="#0C0C0C" stroke="#F2F2F2" stroke-width="0.5"/>
</svg>
